<svg width="37" height="34" viewBox="0 0 37 34" fill="none" xmlns="http://www.w3.org/2000/svg">
<path d="M25.8231 13.3605V20.6393M29.6772 3.89575H7.32308C6.50533 3.89575 5.72107 4.19426 5.14283 4.72562C4.5646 5.25697 4.23975 5.97764 4.23975 6.72909V27.2708C4.23975 28.0222 4.5646 28.7429 5.14283 29.2742C5.72107 29.8056 6.50533 30.1041 7.32308 30.1041H29.6772C30.495 30.1041 31.2793 29.8056 31.8575 29.2742C32.4357 28.7429 32.7606 28.0222 32.7606 27.2708V6.72909C32.7606 5.97764 32.4357 5.25697 31.8575 4.72562C31.2793 4.19426 30.495 3.89575 29.6772 3.89575Z" stroke="#495B72" stroke-linecap="round" stroke-linejoin="round"/>
<path d="M18.4786 20.6394V13.3606H21.0717C22.5378 13.3606 23.7264 14.455 23.7264 15.8051C23.7264 17.1551 22.5378 18.2495 21.0717 18.2495H18.4786M15.5556 18.2283H12.046M11.1772 20.6394L13.8012 13.3606L16.4251 20.6394" stroke="#495B72" stroke-linecap="round" stroke-linejoin="round"/>
</svg>
