<svg width="65" height="65" viewBox="0 0 65 65" fill="none" xmlns="http://www.w3.org/2000/svg">
<path d="M7.60964 14.0725C7.48929 10.6117 10.1853 7.42065 13.8298 7.42065H51.1744C54.8189 7.42065 57.5149 10.6117 57.3946 14.0725C57.2788 17.3966 57.4291 21.7029 58.5128 25.2139C59.6 28.7361 61.4332 30.9618 64.4359 31.2482V34.4916C61.4332 34.778 59.6 37.0038 58.5128 40.526C57.4291 44.037 57.2788 48.3432 57.3946 51.6674C57.5149 55.1281 54.8189 58.3187 51.1744 58.3187H13.8298C10.1853 58.3187 7.48929 55.1276 7.60964 51.6674C7.72542 48.3432 7.57511 44.037 6.49093 40.526C5.40421 37.0043 3.56593 34.778 0.563232 34.4916V31.2482C3.56593 30.9623 5.40421 28.7361 6.49093 25.2139C7.57511 21.7029 7.72491 17.3966 7.60964 14.0725Z" fill="url(#paint0_linear_388_297)"/>
<g filter="url(#filter0_d_388_297)">
<path d="M34.0793 46.5848C39.9796 46.5848 43.535 43.6959 43.535 38.9308C43.535 35.3289 40.9981 32.7213 37.2312 32.3085V32.1584C39.9988 31.7082 42.1705 29.1381 42.1705 26.2679C42.1705 22.1782 38.9418 19.5142 34.0217 19.5142H22.9514V46.5848H34.0793ZM27.2565 22.9473H32.9839C36.0974 22.9473 37.8654 24.3355 37.8654 26.8494C37.8654 29.5321 35.8091 31.0328 32.0806 31.0328H27.2565V22.9473ZM27.2565 43.1517V34.2407H32.9453C37.0198 34.2407 39.1339 35.7415 39.1339 38.6681C39.1339 41.5946 37.0775 43.1517 33.1952 43.1517H27.2565Z" fill="url(#paint1_linear_388_297)"/>
</g>
<defs>
<filter id="filter0_d_388_297" x="22.1837" y="18.9385" width="22.1191" height="28.606" filterUnits="userSpaceOnUse" color-interpolation-filters="sRGB">
<feFlood flood-opacity="0" result="BackgroundImageFix"/>
<feColorMatrix in="SourceAlpha" type="matrix" values="0 0 0 0 0 0 0 0 0 0 0 0 0 0 0 0 0 0 127 0" result="hardAlpha"/>
<feOffset dy="0.191922"/>
<feGaussianBlur stdDeviation="0.383844"/>
<feColorMatrix type="matrix" values="0 0 0 0 0 0 0 0 0 0 0 0 0 0 0 0 0 0 0.15 0"/>
<feBlend mode="normal" in2="BackgroundImageFix" result="effect1_dropShadow_388_297"/>
<feBlend mode="normal" in="SourceGraphic" in2="effect1_dropShadow_388_297" result="shape"/>
</filter>
<linearGradient id="paint0_linear_388_297" x1="10.0545" y1="8.7677" x2="65.8675" y2="53.0726" gradientUnits="userSpaceOnUse">
<stop stop-color="#9013FE"/>
<stop offset="1" stop-color="#6610F2"/>
</linearGradient>
<linearGradient id="paint1_linear_388_297" x1="24.899" y1="21.2956" x2="37.3739" y2="42.3945" gradientUnits="userSpaceOnUse">
<stop stop-color="white"/>
<stop offset="1" stop-color="#F1E5FC"/>
</linearGradient>
</defs>
</svg>
