<svg width="61" height="60" viewBox="0 0 61 60" fill="none" xmlns="http://www.w3.org/2000/svg">
<path d="M30.039 34.6237C32.6267 34.6237 34.7244 32.5259 34.7244 29.9382C34.7244 27.3505 32.6267 25.2528 30.039 25.2528C27.4513 25.2528 25.3535 27.3505 25.3535 29.9382C25.3535 32.5259 27.4513 34.6237 30.039 34.6237Z" fill="#00D8FF"/>
<path d="M30.0391 40.6811C24.4075 40.8173 18.7899 40.0582 13.3964 38.432C10.9049 37.6422 8.58109 36.3981 6.54247 34.7624C5.76455 34.2036 5.11672 33.4832 4.64344 32.6505C4.17015 31.8178 3.88261 30.8925 3.80054 29.9382C3.80054 26.8402 7.20406 23.804 12.9053 21.8174C18.443 20.0571 24.229 19.2039 30.0391 19.291C35.7717 19.2109 41.4802 20.0486 46.948 21.7724C49.3475 22.5374 51.5925 23.7214 53.5789 25.2696C54.3435 25.8024 54.9816 26.4967 55.448 27.3035C55.9144 28.1103 56.1977 29.0098 56.2777 29.9382C56.2777 33.1581 52.4731 36.421 46.3445 38.4489C41.0555 40.0221 35.5564 40.7749 30.0391 40.6811ZM30.0391 21.5325C24.4805 21.4582 18.9455 22.2693 13.6419 23.9352C8.39417 25.7663 6.04206 28.2702 6.04206 29.9326C6.04206 31.6719 8.57034 34.4063 14.1217 36.3048C19.2814 37.8526 24.6539 38.5731 30.0391 38.4395C35.3176 38.5339 40.5794 37.8197 45.6417 36.3217C51.4048 34.4119 54.0287 31.6737 54.0287 29.9382C53.9341 29.3427 53.7171 28.7732 53.3913 28.2658C53.0655 27.7583 52.638 27.324 52.1358 26.9901C50.3586 25.6166 48.3531 24.5673 46.2115 23.8902C40.9807 22.248 35.5211 21.4521 30.0391 21.5325Z" fill="#00D8FF"/>
<path d="M19.3938 53.3074C18.5195 53.3275 17.6555 53.1154 16.8899 52.6927C14.206 51.1446 13.2764 46.6803 14.4028 40.7485C15.6447 35.0718 17.7966 29.6333 20.775 24.6437C23.5689 19.6379 27.1457 15.1114 31.3698 11.2357C33.2312 9.53905 35.3785 8.18558 37.7121 7.2381C38.5561 6.84253 39.4769 6.63748 40.409 6.63748C41.3412 6.63748 42.2619 6.84253 43.106 7.2381C45.8966 8.84615 46.8206 13.7715 45.518 20.0931C44.2378 25.4619 42.1418 30.6025 39.3032 35.3359C36.6077 40.2825 33.1435 44.7696 29.0402 48.6295C27.1113 50.3927 24.8726 51.7836 22.4374 52.7321C21.4625 53.0939 20.4335 53.2884 19.3938 53.3074ZM22.7167 25.7569C19.8756 30.5348 17.8132 35.7345 16.6069 41.1609C15.5704 46.6241 16.5656 49.9095 18.0125 50.7454C19.5118 51.6132 23.1515 50.7904 27.5708 46.9296C31.4879 43.2317 34.7944 38.9366 37.3672 34.2039C40.0865 29.6787 42.0971 24.7639 43.329 19.6302C44.5547 13.6797 43.4958 10.0363 41.9927 9.17039C41.4293 8.95453 40.8273 8.8579 40.2247 8.88661C39.6221 8.91532 39.032 9.06875 38.4917 9.33719C36.4145 10.1943 34.5048 11.4112 32.8504 12.9319C28.8147 16.6442 25.3981 20.9776 22.7298 25.7682L22.7167 25.7569Z" fill="#00D8FF"/>
<path d="M40.6789 53.3318C38.1393 53.3318 34.9139 51.795 31.5553 48.9069C27.2573 44.996 23.62 40.4157 20.7844 35.3434C17.8433 30.4224 15.7085 25.0626 14.4609 19.4672C13.9198 17.0054 13.8196 14.4672 14.1648 11.9704C14.2446 11.0442 14.5266 10.1468 14.991 9.34144C15.4553 8.53608 16.0907 7.84241 16.8523 7.30933C19.6393 5.69565 24.3678 7.35431 29.1939 11.6387C33.2057 15.4286 36.6126 19.8115 39.2957 24.6343C42.235 29.4404 44.3922 34.6828 45.6867 40.1657C46.251 42.7178 46.3381 45.3523 45.9434 47.936C45.8496 48.8889 45.5507 49.8102 45.0674 50.6367C44.5841 51.4632 43.9278 52.1755 43.1434 52.7246C42.3903 53.142 41.5397 53.3516 40.6789 53.3318ZM22.7242 34.2151C25.4444 39.0626 28.9189 43.4462 33.0172 47.2014C37.2322 50.8279 40.5758 51.6076 42.0133 50.7623C43.5126 49.8908 44.6184 46.3336 43.4789 40.578C42.2305 35.3433 40.1614 30.3391 37.3484 25.7513C34.788 21.1354 31.5361 16.9386 27.7058 13.3067C23.1627 9.27347 19.4781 8.37199 17.9769 9.24161C17.509 9.62185 17.125 10.095 16.8492 10.6311C16.5734 11.1672 16.4117 11.7547 16.3744 12.3565C16.0764 14.5832 16.1735 16.845 16.6612 19.038C17.8612 24.389 19.9087 29.514 22.726 34.2189L22.7242 34.2151Z" fill="#00D8FF"/>
</svg>
