<svg width="60" height="60" viewBox="0 0 60 60" fill="none" xmlns="http://www.w3.org/2000/svg">
<path d="M16.894 25.6763C18.6432 18.6794 23.0163 15.1809 30.0133 15.1809C40.5087 15.1809 41.8206 23.0525 47.0683 24.3644C50.5668 25.239 53.628 23.9271 56.2518 20.4286C54.5026 27.4256 50.1295 30.924 43.1325 30.924C32.6371 30.924 31.3252 23.0525 26.0775 21.7405C22.579 20.8659 19.5178 22.1778 16.894 25.6763ZM3.77466 41.4195C5.5239 34.4225 9.897 30.924 16.894 30.924C27.3894 30.924 28.7013 38.7956 33.949 40.1075C37.4475 40.9822 40.5087 39.6702 43.1325 36.1717C41.3833 43.1687 37.0102 46.6672 30.0133 46.6672C19.5178 46.6672 18.2059 38.7956 12.9582 37.4837C9.45969 36.6091 6.39852 37.921 3.77466 41.4195Z" fill="#44A8B3"/>
</svg>
