<svg width="52" height="52" viewBox="0 0 52 52" fill="none" xmlns="http://www.w3.org/2000/svg">
<g clip-path="url(#clip0_203_198)">
<path d="M39.8125 0H12.1875C5.45653 0 0 5.45653 0 12.1875V39.8125C0 46.5435 5.45653 52 12.1875 52H39.8125C46.5435 52 52 46.5435 52 39.8125V12.1875C52 5.45653 46.5435 0 39.8125 0Z" fill="#0073AA"/>
<path d="M8.57471 25.9988C8.57471 32.8959 12.583 38.8564 18.3952 41.681L10.0833 18.9075C9.08694 21.1387 8.57286 23.5552 8.57471 25.9988ZM37.7626 25.1194C37.7626 22.9661 36.9891 21.4748 36.3257 20.3139C35.4423 18.8786 34.6143 17.6631 34.6143 16.2278C34.6143 14.626 35.8292 13.1351 37.5403 13.1351C37.6177 13.1351 37.6909 13.1446 37.7662 13.1489C34.6661 10.3088 30.536 8.57471 25.9994 8.57471C19.9121 8.57471 14.5563 11.698 11.4408 16.4287C11.8495 16.4409 12.2348 16.4497 12.5621 16.4497C14.3847 16.4497 17.2059 16.2283 17.2059 16.2283C18.1452 16.173 18.2561 17.5526 17.3176 17.6637C17.3176 17.6637 16.3737 17.7748 15.3233 17.8299L21.6686 36.7039L25.4818 25.2673L22.7671 17.8293C21.8288 17.7742 20.9399 17.6631 20.9399 17.6631C20.0009 17.6081 20.111 16.1724 21.05 16.2278C21.05 16.2278 23.9275 16.4488 25.6397 16.4488C27.4621 16.4488 30.2835 16.2278 30.2835 16.2278C31.2236 16.1724 31.3339 17.552 30.3952 17.6631C30.3952 17.6631 29.4493 17.7742 28.4009 17.8293L34.698 36.5603L36.4359 30.7525C37.1893 28.3422 37.7626 26.6112 37.7626 25.1194Z" fill="white"/>
<path d="M26.3052 27.523L21.0771 42.7148C22.6755 43.1855 24.3332 43.4246 25.9995 43.4247C27.9702 43.4254 29.9268 43.0914 31.7857 42.4369C31.7373 42.3607 31.6959 42.2803 31.6618 42.1968L26.3052 27.523ZM41.2889 17.639C41.3681 18.2329 41.4074 18.8314 41.4063 19.4305C41.4063 21.1987 41.076 23.1865 40.0813 25.672L34.7588 41.0605C39.9391 38.0396 43.4235 32.4275 43.4235 25.9992C43.4237 22.9696 42.65 20.1208 41.2889 17.639Z" fill="white"/>
<path d="M25.9996 5.6875C14.7997 5.6875 5.6875 14.7991 5.6875 25.9988C5.6875 37.1999 14.7997 46.3111 25.9996 46.3111C37.1989 46.3111 46.3125 37.1999 46.3125 25.9988C46.3121 14.7991 37.1989 5.6875 25.9996 5.6875ZM25.9996 45.3802C15.3132 45.3802 6.61883 36.6856 6.61883 25.9988C6.61883 15.3126 15.313 6.61883 25.9996 6.61883C36.6854 6.61883 45.3791 15.3126 45.3791 25.9988C45.3791 36.6856 36.6854 45.3802 25.9996 45.3802Z" fill="white"/>
</g>
<defs>
<clipPath id="clip0_203_198">
<rect width="52" height="52" fill="white"/>
</clipPath>
</defs>
</svg>
